<?xml version="1.0" standalone="no"?>
<!DOCTYPE svg>
<svg version="1.0" xmlns="http://www.w3.org/2000/svg"
 width="512.000000pt" height="512.000000pt" viewBox="0 0 512.000000 512.000000"
 preserveAspectRatio="xMidYMid meet">

<g transform="translate(0.000000,512.000000) scale(0.100000,-0.100000)"
fill="#2091f9" stroke="none">
<path d="M0 4845 l0 -275 558 0 558 0 37 38 37 38 0 237 0 237 -595 0 -595 0
0 -275z"/>
<path d="M1370 4882 l0 -238 38 -37 38 -37 475 0 475 0 37 38 37 38 0 237 0
237 -550 0 -550 0 0 -238z"/>
<path d="M2650 4882 l0 -238 38 -37 38 -37 475 0 475 0 37 38 37 38 0 237 0
237 -550 0 -550 0 0 -238z"/>
<path d="M3930 4882 l0 -238 38 -37 38 -37 557 0 557 0 0 275 0 275 -595 0
-595 0 0 -238z"/>
<path d="M0 4025 l0 -365 559 0 558 0 37 34 36 35 0 293 0 294 -38 37 -38 37
-557 0 -557 0 0 -365z"/>
<path d="M1407 4352 l-37 -38 0 -293 0 -292 36 -35 37 -34 477 0 477 0 37 34
36 35 0 293 0 294 -38 37 -38 37 -475 0 -475 0 -37 -38z"/>
<path d="M2687 4352 l-37 -38 0 -293 0 -292 36 -35 37 -34 477 0 477 0 37 34
36 35 0 293 0 294 -38 37 -38 37 -475 0 -475 0 -37 -38z"/>
<path d="M3967 4352 l-37 -38 0 -293 0 -292 36 -35 37 -34 558 0 559 0 0 365
0 365 -558 0 -558 0 -37 -38z"/>
<path d="M0 3200 l0 -270 595 0 595 0 0 235 0 236 -35 34 -34 35 -561 0 -560
0 0 -270z"/>
<path d="M1403 3436 l-33 -33 0 -237 0 -236 550 0 550 0 0 235 0 236 -35 34
-34 35 -483 -1 -483 0 -32 -33z"/>
<path d="M2683 3436 l-33 -33 0 -237 0 -236 550 0 550 0 0 235 0 236 -35 34
-34 35 -483 -1 -483 0 -32 -33z"/>
<path d="M3963 3436 l-33 -33 0 -237 0 -236 595 0 595 0 0 270 0 270 -562 -1
-563 0 -32 -33z"/>
<path d="M2380 2695 l0 -45 180 0 180 0 0 45 0 45 -180 0 -180 0 0 -45z"/>
<path d="M2470 1866 l0 -604 -36 -36 -36 -36 -239 0 -239 0 0 -90 0 -90 238 0
239 0 26 -30 c75 -84 199 -84 274 0 l26 30 239 0 238 0 0 90 0 90 -239 0 -239
0 -36 36 -36 36 0 604 0 604 -90 0 -90 0 0 -604z"/>
<path d="M485 2165 l-25 -24 0 -1045 0 -1044 31 -26 31 -26 568 0 c338 0 579
4 594 10 59 22 57 -27 54 1099 l-3 1029 -24 26 c-22 23 -32 26 -93 26 l-68 0
0 -64 c0 -102 -28 -151 -105 -187 -36 -17 -70 -19 -349 -19 -295 0 -312 1
-354 21 -66 32 -96 85 -100 176 l-4 73 -65 0 c-55 0 -67 -4 -88 -25z m800
-705 l60 -60 -104 -104 -104 -104 93 -3 c86 -4 93 -6 116 -32 16 -18 24 -40
24 -64 0 -33 -14 -50 -195 -232 l-194 -196 -66 65 -65 65 100 100 c55 55 100
104 100 108 0 4 -40 7 -88 7 -79 0 -91 2 -110 23 -27 29 -36 70 -22 99 15 29
371 388 385 388 6 0 37 -27 70 -60z"/>
<path d="M820 2145 l0 -45 275 0 275 0 0 45 0 45 -275 0 -275 0 0 -45z"/>
<path d="M3409 2164 l-24 -26 -3 -1029 c-3 -1126 -5 -1077 54 -1099 15 -6 257
-10 595 -10 l571 0 29 29 29 29 0 1042 0 1041 -25 24 c-21 21 -33 25 -88 25
l-65 0 -4 -73 c-4 -91 -34 -144 -100 -176 -42 -20 -59 -21 -354 -21 -279 0
-313 2 -349 19 -77 36 -105 85 -105 187 l0 64 -68 0 c-61 0 -71 -3 -93 -26z
m798 -706 l63 -63 -102 -102 -103 -103 78 0 c49 0 89 -5 106 -15 33 -17 55
-62 46 -97 -4 -14 -91 -109 -198 -216 l-192 -192 -65 65 -65 65 105 105 105
105 -93 0 c-88 0 -94 2 -117 26 -17 18 -25 39 -25 62 0 33 15 51 192 229 106
106 195 193 197 193 3 0 34 -28 68 -62z"/>
<path d="M3750 2145 l0 -45 275 0 275 0 0 45 0 45 -275 0 -275 0 0 -45z"/>
</g>
</svg>
