<?xml version="1.0" standalone="no"?>
<!DOCTYPE svg>
<svg version="1.0" xmlns="http://www.w3.org/2000/svg"
 width="512.000000pt" height="512.000000pt" viewBox="0 0 512.000000 512.000000"
 preserveAspectRatio="xMidYMid meet">

<g transform="translate(0.000000,512.000000) scale(0.100000,-0.100000)"
fill="#2091f9" stroke="none">
<path d="M890 4133 c-28 -26 -38 -55 -120 -363 -49 -184 -90 -341 -90 -348 0
-10 117 -12 567 -10 l566 3 62 373 61 372 -508 0 -508 0 -30 -27z"/>
<path d="M2150 4154 c0 -3 -27 -167 -60 -364 -33 -197 -60 -364 -60 -369 0 -8
166 -11 530 -11 417 0 530 3 530 13 0 6 -27 171 -60 366 -33 195 -60 358 -60
363 0 4 -184 8 -410 8 -225 0 -410 -2 -410 -6z"/>
<path d="M3245 3788 l62 -373 566 -3 c412 -1 567 1 567 9 0 6 -40 163 -90 348
-82 308 -92 338 -120 364 l-30 27 -508 0 -508 0 61 -372z"/>
<path d="M614 3187 c-2 -7 -42 -150 -88 -317 l-83 -305 610 -3 c336 -1 612 0
614 2 2 2 28 146 57 320 l53 316 -579 0 c-464 0 -580 -3 -584 -13z"/>
<path d="M1941 2888 c-28 -172 -51 -316 -51 -320 0 -5 302 -8 670 -8 369 0
670 3 670 8 0 4 -23 148 -51 320 l-52 312 -567 0 -567 0 -52 -312z"/>
<path d="M3396 2884 c29 -174 55 -318 57 -320 2 -2 278 -3 614 -2 l609 3 -86
315 -85 315 -581 3 -581 2 53 -316z"/>
<path d="M381 2327 c-5 -13 -46 -156 -91 -317 -88 -316 -91 -337 -44 -381 l26
-24 618 -3 618 -2 6 27 c12 58 116 693 116 707 0 14 -66 16 -620 16 l-620 0
-9 -23z"/>
<path d="M1846 2323 c-12 -58 -116 -693 -116 -707 0 -14 41 -16 360 -16 l360
0 0 -215 0 -215 -181 0 -181 0 -29 -29 c-47 -48 -37 -130 21 -164 25 -15 76
-17 480 -17 404 0 455 2 480 17 58 34 68 116 21 164 l-29 29 -181 0 -181 0 0
215 0 215 360 0 c319 0 360 2 360 16 0 14 -104 649 -116 707 l-6 27 -708 0
-708 0 -6 -27z"/>
<path d="M3490 2334 c0 -14 104 -649 116 -707 l6 -27 618 2 618 3 26 24 c47
44 44 65 -44 381 -45 161 -86 304 -91 317 l-9 23 -620 0 c-554 0 -620 -2 -620
-16z"/>
</g>
</svg>
